# xmcd
#
# Track frame offsets:
#	150
#	18743
#	42475
#	73553
#	97028
#
# Disc length: 1555 seconds
#
# Revision: 2
# Processed by: cddbd v1.5.2PL0 Copyright (c) Steve Scherf et al.
# Submitted via: EZCDAudioConverter 3.0.3.2
#
DISCID=42061105
DTITLE=Shara Nelson - One Goodbye In Ten (Uk CDM)
DYEAR=1993
DGENRE=Pop - Downtempo
TTITLE0=One Goodbye In Ten (Lp Edit)
TTITLE1=One Goodbye In Ten (Simon Law Mix)
TTITLE2=One Goodbye In Ten (Funky Ginger Club Mix)
TTITLE3=One Goodbye In Ten (Original Demo)
TTITLE4=One Goodbye In Ten (Underdog Mix)
EXTD=
EXTT0=
EXTT1=
EXTT2=
EXTT3=
EXTT4=
PLAYORDER=
